<svg xmlns="http://www.w3.org/2000/svg" width="10" height="21" viewBox="0 0 10 21">
  <defs>
    <style>
      .cls-1 {
        fill: #fff;
        fill-rule: evenodd;
      }
    </style>
  </defs>
  <path id="Shape_2_copy_3_копия_3" data-name="Shape 2 copy 3 копия 3" class="cls-1" d="M8.738,20.729a0.513,0.513,0,0,1-.515-0.2L1.862,13.246a4.182,4.182,0,0,1-.945-2.855,5.281,5.281,0,0,1,.945-2.855L8.223,0.25a0.616,0.616,0,0,1,.946,0,0.855,0.855,0,0,1,0,1.083L2.808,8.619a2.5,2.5,0,0,0,0,3.347l6.361,7.286a0.855,0.855,0,0,1,0,1.083A0.35,0.35,0,0,1,8.738,20.729Z"/>
</svg>
