<svg xmlns="http://www.w3.org/2000/svg" width="10" height="21" viewBox="0 0 10 21">
  <defs>
    <style>
      .cls-1 {
        fill: #fff;
        fill-rule: evenodd;
      }
    </style>
  </defs>
  <path id="Shape_2_copy_3_копия_2" data-name="Shape 2 copy 3 копия 2" class="cls-1" d="M1.52,20.729a0.515,0.515,0,0,0,.517-0.2l6.38-7.277A4.167,4.167,0,0,0,9.365,10.4a5.263,5.263,0,0,0-.948-2.852L2.037,0.274a0.619,0.619,0,0,0-.948,0,0.851,0.851,0,0,0,0,1.082l6.38,7.277a2.485,2.485,0,0,1,0,3.344l-6.38,7.277a0.852,0.852,0,0,0,0,1.082A0.351,0.351,0,0,0,1.52,20.729Z"/>
</svg>
