<svg version="1.1" fill='#00a5e4'
	 xmlns="http://www.w3.org/2000/svg" xmlns:xlink="http://www.w3.org/1999/xlink" x="0px" y="0px" viewBox="0 0 97.92 101.932"
	 style="enable-background:new 0 0 97.92 101.932;" xml:space="preserve">
<g>
	<g>
		<defs>
			<rect id="SVGID_1_" width="97.92" height="101.932"/>
		</defs>
		<clipPath id="SVGID_2_">
			<use xlink:href="#SVGID_1_"  style="overflow:visible;"/>
		</clipPath>
		<path style="clip-path:url(#SVGID_2_);" d="M61.629,21.299c-0.969,0-1.844,0.363-2.531,0.942l-0.036-0.036L28.137,53.026
			c-3.508,3.504-4.942,6.922-4.961,11.801c0,3.816,1.41,7.25,3.969,9.667c2.644,2.497,6.316,3.817,10.621,3.817h0.089
			c4.481-0.02,8.676-1.785,11.805-4.961l35.883-35.875c9.09-9.09,9.328-22.043,0.57-30.805C81.766,2.327,75.98-0.068,69.824-0.068
			c-6.16,0-11.945,2.395-16.285,6.738L8.594,51.608c-11.457,11.457-11.457,30.101,0,41.562c5.543,5.539,12.922,8.59,20.777,8.59
			c7.859,0,15.238-3.051,20.781-8.59l46.532-46.695c0,0,1.023-1.008,1.023-2.707c0-2.18-1.766-3.945-3.945-3.945
			c-1.035,0-1.969,0.406-2.672,1.062l-0.012-0.016L44.547,87.565c-4.047,4.047-9.438,6.273-15.176,6.273
			c-5.738,0-11.129-2.226-15.172-6.273c-8.371-8.371-8.371-21.988,0-30.352l44.946-44.937c2.847-2.848,6.64-4.418,10.679-4.418
			c4.039,0,7.832,1.57,10.684,4.418c2.844,2.843,4.269,6.218,4.133,9.765c-0.137,3.493-1.762,6.891-4.7,9.828L43.98,67.823
			c-1.644,1.644-3.828,2.554-6.152,2.562c-4.414,0-6.726-2.785-6.726-5.527c0.011-2.321,0.918-4.504,2.562-6.153l31.004-30.894
			l-0.035-0.035c0.578-0.688,0.941-1.563,0.941-2.532C65.574,23.065,63.809,21.299,61.629,21.299L61.629,21.299z M61.629,21.299"/>
	</g>
</g>
</svg>
