<?xml version="1.0" encoding="utf-8"?>
<!-- Generator: Adobe Illustrator 21.0.0, SVG Export Plug-In . SVG Version: 6.00 Build 0)  -->
<svg version="1.1" id="Layer_1" xmlns="http://www.w3.org/2000/svg" xmlns:xlink="http://www.w3.org/1999/xlink" x="0px" y="0px"
	 viewBox="0 0 381.1 246.4" style="enable-background:new 0 0 381.1 246.4;" xml:space="preserve">
<style type="text/css">
	.st0{fill:#D0E9FB;}
	.st1{fill:#8FC4ED;}
	.st2{fill:#90C5EE;}
</style>
<path class="st0" d="M38.8,152.2c17.3,7.4,39.7,12.5,62.6,28.6c34.8,24.5,46.4,55.8,77.3,63.1c56.5,13.3,83.4-29.4,83.3-68
	c-0.1-40.1-16.9-89.4-61.6-120.3C142.3,15.4,74.5,23.4,34.3,48.3C12.3,61.9-32.7,121.6,38.8,152.2z"/>
<path class="st1" d="M144,65.5c12-5.1,27.6-8.7,43.5-19.9c24.1-17,32.2-38.8,53.7-43.8C280.4-7.5,299.1,22.1,299,49
	c0,27.9-11.7,62.1-42.8,83.5c-40.4,27.9-87.5,22.4-115.4,5.1C125.6,128.2,94.3,86.7,144,65.5z"/>
<ellipse class="st2" cx="345.3" cy="103" rx="35.7" ry="26.9"/>
</svg>
