<?xml version="1.0" encoding="iso-8859-1"?>
<!-- Generator: Adobe Illustrator 21.0.0, SVG Export Plug-In . SVG Version: 6.00 Build 0)  -->
<svg version="1.1" id="Layer_1" xmlns="http://www.w3.org/2000/svg" xmlns:xlink="http://www.w3.org/1999/xlink" x="0px" y="0px"
	 viewBox="0 0 383.878 254.589" style="enable-background:new 0 0 383.878 254.589;" xml:space="preserve">
<path style="fill:#F0F0F0;" d="M38.833,160.366c17.295,7.406,39.68,12.488,62.566,28.645c34.752,24.529,46.352,55.813,77.314,63.098
	c56.51,13.295,83.359-29.371,83.311-68.037c-0.051-40.105-16.912-89.398-61.557-120.25C142.273,23.604,74.534,31.579,34.3,56.466
	C12.308,70.069-32.692,129.737,38.833,160.366z"/>
<path style="fill:#D1D1D1;" d="M143.977,73.636c12.015-5.144,27.566-8.676,43.464-19.898c24.142-17.039,32.2-38.771,53.709-43.832
	c39.257-9.236,57.909,20.402,57.875,47.264c-0.035,27.861-11.748,62.104-42.763,83.535c-40.427,27.939-87.484,22.398-115.435,5.109
	C125.55,136.364,94.289,94.913,143.977,73.636z"/>
<ellipse style="fill:#D2D2D2;" cx="345.306" cy="111.158" rx="35.746" ry="26.919"/>
</svg>
