<svg fill='#00a5e4' version="1.1" id="Capa_1" xmlns="http://www.w3.org/2000/svg" xmlns:xlink="http://www.w3.org/1999/xlink" x="0px" y="0px"
	 viewBox="-49 141 512 512" style="enable-background:new -49 141 512 512;" xml:space="preserve">
<path d="M235.286,397.001l221.857-221.858c7.811-7.811,7.811-20.475,0-28.285s-20.475-7.811-28.285,0L207,368.716L-14.857,146.858
	c-7.811-7.811-20.475-7.811-28.285,0s-7.811,20.475,0,28.285L178.715,397L-43.142,618.858c-7.811,7.811-7.811,20.475,0,28.285
	c3.905,3.905,9.024,5.857,14.143,5.857s10.237-1.952,14.143-5.857L207,425.286l221.857,221.857C432.762,651.048,437.881,653,443,653
	s10.237-1.952,14.143-5.857c7.811-7.811,7.811-20.475,0-28.285L235.286,397.001z"/>
</svg>
