<svg xmlns="http://www.w3.org/2000/svg" width="54" height="34" viewBox="0 0 54 34">
  <defs>
    <style>
      .cls-1 {
        fill: #00a5e4;
        fill-rule: evenodd;
      }
    </style>
  </defs>
  <path class="cls-1" d="M1211.22,3473.41l-1.4-5.56a0.848,0.848,0,0,0,.67-0.83v-0.89a3.549,3.549,0,0,0-3.55-3.54h-6.37v-1.85a1.743,1.743,0,0,0-1.75-1.74h-32.47a1.741,1.741,0,0,0-1.74,1.74V3476a0.845,0.845,0,0,0,1.69,0v-15.26a0.056,0.056,0,0,1,.05-0.06h32.47a0.065,0.065,0,0,1,.06.06V3476a0.845,0.845,0,0,0,1.69,0v-0.95h9.98a2.767,2.767,0,0,1,2.63,1.9h-2.63a0.849,0.849,0,0,0-.85.85v1.79a2.652,2.652,0,0,0,2.65,2.64h0.96v3.7h-2.21a5.361,5.361,0,0,0-10.12,0h-0.41v-6.34a0.845,0.845,0,0,0-1.69,0v6.34h-17.54a5.368,5.368,0,0,0-10.13,0h-4.86a0.051,0.051,0,0,1-.05-0.06v-1.85h3.66a0.84,0.84,0,1,0,0-1.68h-8.11a0.84,0.84,0,1,0,0,1.68h2.76v1.85a1.741,1.741,0,0,0,1.74,1.74h4.57v0.06a5.355,5.355,0,0,0,10.71,0v-0.06h19.05v0.06a5.355,5.355,0,0,0,10.71,0v-0.06h2.76a0.841,0.841,0,0,0,.85-0.84v-8.97A4.454,4.454,0,0,0,1211.22,3473.41Zm-10.65-9.14h6.37a1.856,1.856,0,0,1,1.86,1.86v0.05h-8.23v-1.91Zm0,9.09v-5.5h7.51l1.38,5.5h-8.89Zm-24.29,17.96a3.65,3.65,0,1,1,3.66-3.65A3.668,3.668,0,0,1,1176.28,3491.32Zm29.76,0a3.65,3.65,0,1,1,3.66-3.65A3.668,3.668,0,0,1,1206.04,3491.32Zm7.27-10.78h-0.96a0.952,0.952,0,0,1-.96-0.95v-0.95h1.92v1.9h0Zm-37.03,5.39a1.74,1.74,0,1,0,1.74,1.74A1.743,1.743,0,0,0,1176.28,3485.93Zm29.76,0a1.74,1.74,0,1,0,1.74,1.74A1.743,1.743,0,0,0,1206.04,3485.93Zm-9.92-3.59h-12.63a0.84,0.84,0,1,0,0,1.68h12.63A0.84,0.84,0,0,0,1196.12,3482.34Zm-21.65-3.59h-10.82a0.84,0.84,0,1,0,0,1.68h10.82A0.84,0.84,0,1,0,1174.47,3478.75Zm15.93-11.42a0.839,0.839,0,0,0-1.19,0l-7.52,7.48-3.91-3.89a0.851,0.851,0,0,0-1.2,0,0.839,0.839,0,0,0,0,1.19l4.51,4.49a0.858,0.858,0,0,0,1.19,0l8.12-8.08A0.839,0.839,0,0,0,1190.4,3467.33Z" transform="translate(-1161 -3459)"/>
</svg>
