<svg xmlns="http://www.w3.org/2000/svg" width="48" height="45" viewBox="0 0 48 45">
  <defs>
    <style>
      .cls-1 {
        fill: #00a5e4;
        fill-rule: evenodd;
      }
    </style>
  </defs>
  <path class="cls-1" d="M1194.79,3357.2a0.8,0.8,0,0,0-.97.59l-0.8,3.21a0.821,0.821,0,0,0,.59.98,1.225,1.225,0,0,0,.19.02,0.808,0.808,0,0,0,.78-0.61l0.8-3.21A0.821,0.821,0,0,0,1194.79,3357.2Zm-9.79-16.09a0.853,0.853,0,0,0,.31-0.06l8.8-3.66a0.807,0.807,0,0,0-.62-1.49l-8.49,3.53-22.4-9.31v-0.26a0.8,0.8,0,1,0-1.6,0v0.8a0.8,0.8,0,0,0,.49.74l23.2,9.65A0.853,0.853,0,0,0,1185,3341.11Zm9.52,8.23a0.806,0.806,0,0,0-1.07-.37,18.494,18.494,0,0,1-7.65,1.76v-7.21a0.8,0.8,0,1,0-1.6,0v7.2c-9.93-.32-13.14-6.36-13.6-7.37v-5.46a0.8,0.8,0,0,0-1.6,0v5.63a0.8,0.8,0,0,0,.06.3c0.14,0.34,3.54,8.54,15.94,8.54a20.541,20.541,0,0,0,9.15-1.94A0.814,0.814,0,0,0,1194.52,3349.34Zm2.48,8.64a0.8,0.8,0,0,0-.8.81v2.41a0.8,0.8,0,0,0,1.6,0v-2.41A0.8,0.8,0,0,0,1197,3357.98Zm11.2-28.93a0.8,0.8,0,0,0-.8.81v0.26l-9.6,3.97v-1.45l10.71-4.45a0.811,0.811,0,0,0,0-1.49l-23.2-9.64a0.831,0.831,0,0,0-.62,0l-23.2,9.64a0.811,0.811,0,0,0,0,1.49l23.2,9.64a0.831,0.831,0,0,0,.62,0l8.38-3.49a0.791,0.791,0,0,0,.44-1.04,0.806,0.806,0,0,0-1.05-.44l-8.08,3.36-21.11-8.77,21.11-8.78,21.11,8.78-9.19,3.81-8.79-3.3a2.163,2.163,0,0,0,.07-0.51c0-1.36-1.41-2.41-3.2-2.41s-3.2,1.05-3.2,2.41,1.41,2.41,3.2,2.41a3.789,3.789,0,0,0,2.07-.58l9.13,3.43v2.57h0v17.22a2.4,2.4,0,1,0,1.6,0v-4.56a9.808,9.808,0,0,0,3.16-4.16,1.087,1.087,0,0,0,.04-0.26v-5.63a0.8,0.8,0,0,0-1.6,0v5.48a8.332,8.332,0,0,1-1.6,2.43v-9.97l10.7-4.43a0.8,0.8,0,0,0,.5-0.74v-0.8A0.8,0.8,0,0,0,1208.2,3329.05Zm-23.2-.8a1,1,0,1,1,1.6-.8A1.494,1.494,0,0,1,1185,3328.25Zm12,27.32a0.805,0.805,0,1,1,.8-0.8A0.8,0.8,0,0,1,1197,3355.57Zm3.18,2.22a0.807,0.807,0,0,0-.97-0.59,0.821,0.821,0,0,0-.59.98l0.8,3.21a0.808,0.808,0,0,0,.78.61,1.225,1.225,0,0,0,.19-0.02,0.821,0.821,0,0,0,.59-0.98Z" transform="translate(-1161 -3317)"/>
</svg>
