<svg xmlns="http://www.w3.org/2000/svg" width="42" height="42" viewBox="0 0 42 42">
  <defs>
    <style>
      .cls-1 {
        fill: #00a5e4;
        fill-rule: evenodd;
      }
    </style>
  </defs>
  <path id="Forma_1" data-name="Forma 1" class="cls-1" d="M785,3478.77v-13.55a0.678,0.678,0,0,0-.48-0.64l-6.265-1.86a9.287,9.287,0,0,0,.787-3.45,8.266,8.266,0,1,0-16.532,0,9.289,9.289,0,0,0,.788,3.45l-6.075,1.8-13.362-3.96a0.663,0.663,0,0,0-.592.11,0.651,0.651,0,0,0-.269.53v27.11a0.669,0.669,0,0,0,.479.64l13.543,4.02h0.017a0.209,0.209,0,0,0,.076.02h0.021a0.251,0.251,0,0,0,.086.01,0.259,0.259,0,0,0,.088-0.01h0.02a0.214,0.214,0,0,0,.077-0.02h0.013s13.085-3.88,13.085-3.88a0.644,0.644,0,0,0,.543,0l13.091,3.88a0.629,0.629,0,0,0,.191.03,0.722,0.722,0,0,0,.4-0.13,0.684,0.684,0,0,0,.269-0.54v-13.56h0Zm-1.341-13.05v12.16l-12.213-3.62v-1.91a38.886,38.886,0,0,0,6.245-8.4Zm-12.883-13.38a6.937,6.937,0,0,1,6.926,6.93,8.693,8.693,0,0,1-.931,3.52,0.9,0.9,0,0,0-.068.15,36.646,36.646,0,0,1-5.927,8.17,36.61,36.61,0,0,1-5.924-8.16,0.65,0.65,0,0,0-.074-0.16,8.756,8.756,0,0,1-.927-3.52A6.936,6.936,0,0,1,770.776,3452.34Zm-0.67,20.01v1.91l-12.213,3.62v-12.16l5.969-1.77A38.891,38.891,0,0,0,770.106,3472.35Zm-25.766,3.3,4.631,1.38a0.639,0.639,0,0,0,.191.03,0.674,0.674,0,0,0,.19-1.32l-5.012-1.48V3462.1l12.213,3.62v12.16l-4.631-1.37a0.661,0.661,0,0,0-.833.45,0.671,0.671,0,0,0,.452.83l5.012,1.49v12.15l-12.213-3.62v-12.16Zm27.106,12.16v-4.85a0.67,0.67,0,0,0-1.34,0v4.85l-12.213,3.62v-12.15l12.213-3.63v4.63a0.67,0.67,0,0,0,1.34,0v-4.63l12.213,3.63v12.15Zm-0.67-23.85a4.7,4.7,0,1,0-4.691-4.69A4.7,4.7,0,0,0,770.776,3463.96Zm0-8.05a3.355,3.355,0,1,1-3.351,3.36A3.361,3.361,0,0,1,770.776,3455.91Z" transform="translate(-743 -3451)"/>
</svg>
