<svg xmlns="http://www.w3.org/2000/svg" width="54" height="48" viewBox="0 0 54 48">
  <defs>
    <style>
      .cls-1 {
        fill: #00a5e4;
        fill-rule: evenodd;
      }
    </style>
  </defs>
  <path id="Forma_1" data-name="Forma 1" class="cls-1" d="M783.669,3330.53L782,3327.72a0.8,0.8,0,0,0-1.078-.28,0.769,0.769,0,0,0-.284,1.06l1.072,1.81H771.567l5.072-8.54,1.486,2.5a0.8,0.8,0,0,0,1.078.28,0.769,0.769,0,0,0,.284-1.06l-2.079-3.5a1.093,1.093,0,0,0-.942-0.53H751.534a1.09,1.09,0,0,0-.941.53l-6.262,10.54a1.044,1.044,0,0,0,.078,1.19l10.934,13.93a0.8,0.8,0,0,0,1.105.14,0.758,0.758,0,0,0,.143-1.08L746.5,3331.86h10.686l5.191,20.22-2.748-3.5a0.8,0.8,0,0,0-1.1-.14,0.769,0.769,0,0,0-.143,1.09l4.753,6.05a1.1,1.1,0,0,0,1.726,0l18.728-23.86A1.044,1.044,0,0,0,783.669,3330.53Zm-8.4-9.52-5.054,8.5-4.866-8.5h9.92Zm-6.409,9.3h-9.716l4.858-8.5Zm-22.57,0,5.073-8.54,5.073,8.54H746.288Zm6.445-9.3h9.92l-4.866,8.5ZM764,3352.06l-5.186-20.2h10.372Zm1.62,0.02,5.191-20.22H781.5ZM764,3308a0.783,0.783,0,0,0-.788.77v3.51a0.788,0.788,0,0,0,1.576,0v-3.51A0.783,0.783,0,0,0,764,3308Zm19.092,6.05a0.8,0.8,0,0,0-1.115,0l-2.526,2.48a0.77,0.77,0,0,0,0,1.1,0.815,0.815,0,0,0,1.114,0l2.527-2.49A0.758,0.758,0,0,0,783.092,3314.05Zm7.12,17.98h-3.573a0.785,0.785,0,0,0-.788.78,0.776,0.776,0,0,0,.788.77h3.573a0.776,0.776,0,0,0,.788-0.77A0.785,0.785,0,0,0,790.212,3332.03Zm-48.851,0h-3.573a0.785,0.785,0,0,0-.788.78,0.776,0.776,0,0,0,.788.77h3.573a0.776,0.776,0,0,0,.788-0.77A0.785,0.785,0,0,0,741.361,3332.03Zm7.188-15.5-2.526-2.48a0.8,0.8,0,0,0-1.115,0,0.758,0.758,0,0,0,0,1.09l2.526,2.49a0.816,0.816,0,0,0,1.115,0A0.77,0.77,0,0,0,748.549,3316.53Z" transform="translate(-737 -3308)"/>
</svg>
