<svg xmlns="http://www.w3.org/2000/svg" width="41" height="41" viewBox="0 0 41 41">
  <defs>
    <style>
      .cls-1 {
        fill: #00a5e4;
        fill-rule: evenodd;
      }
    </style>
  </defs>
  <path class="cls-1" d="M746.743,3600h1.4v1.39h-1.4V3600Zm2.8,0h1.4v1.39h-1.4V3600Zm2.8,0h1.4v1.39h-1.4V3600Zm25.208,6.28h-1.4a2.1,2.1,0,0,1-2.1,2.1v1.4a2.1,2.1,0,0,1,2.1,2.09h1.4a2.1,2.1,0,0,1,2.1-2.09v-1.4A2.1,2.1,0,0,1,777.553,3606.28Zm-0.7,3.52a3.287,3.287,0,0,0-.722-0.72,3.788,3.788,0,0,0,.722-0.72,3.731,3.731,0,0,0,.722.72A3.244,3.244,0,0,0,776.853,3609.8Zm4.9-11.2h-1.4a2.1,2.1,0,0,1-2.1,2.1v1.39a2.1,2.1,0,0,1,2.1,2.1h1.4a2.1,2.1,0,0,1,2.1-2.1v-1.39A2.1,2.1,0,0,1,781.754,3598.6Zm-0.7,3.51a3.759,3.759,0,0,0-.722-0.72,0.722,0.722,0,0,1,1.444,0A3.788,3.788,0,0,0,781.054,3602.11Zm-13.011,34.42a53.079,53.079,0,0,1-21.518-7.04l-1.91-1.13a12.33,12.33,0,0,0,.609-2.03c0.048-.2.1-0.41,0.147-0.61,0.147-.57.311-1.52,0.5-2.6a32.7,32.7,0,0,1,.919-4.31l4.195-10.72c0.091-.24.175-0.49,0.26-0.75a4.065,4.065,0,0,1,.9-1.78,3.834,3.834,0,0,1,.882-0.53,0.243,0.243,0,0,0,.1-0.06l8.3-6.34a1.147,1.147,0,0,1,1.4.02l4.162,3.32a1.134,1.134,0,0,1,.038,1.74l-2.656,2.32a1.137,1.137,0,0,1-1.881-.97,1.127,1.127,0,0,1,.5-0.83l0.235-.16-0.778-1.16-0.234.16a2.519,2.519,0,0,0-.388,3.89,2.553,2.553,0,0,0,3.466.12l2.233-1.95,0.687,1.03-4.195,3.59-5.012-.63c0.077-.36.164-0.71,0.266-1.07l-1.344-.38a16.33,16.33,0,0,0-.648,4.96c0.02,0.9.117,1.8,0.211,2.67a26,26,0,0,1,.206,2.96,9.793,9.793,0,0,1-3.039,7.3l0.923,1.06a10.216,10.216,0,0,0,2.907-4.54,1.809,1.809,0,0,1,.744-0.05,8.131,8.131,0,0,1,2.651.71,8.25,8.25,0,0,0-.828,1.75l1.328,0.44a7.092,7.092,0,0,1,.733-1.52l0.051,0.03,0.671-.97a9.166,9.166,0,0,1,5.525-2.84,8.407,8.407,0,0,1,8.228,3.01l1.139-.81a8.51,8.51,0,0,0-2.666-2.39,7.912,7.912,0,0,1,7.468-1.42L784,3616.7a9.335,9.335,0,0,0-9.293,2.09,11,11,0,0,0-5.542-.54,10.567,10.567,0,0,0-6.41,3.34,9.757,9.757,0,0,0-3.391-.95c-0.155-.01-0.321-0.02-0.49-0.02a12.912,12.912,0,0,0,.232-2.35,27.152,27.152,0,0,0-.215-3.12c-0.09-.84-0.183-1.71-0.2-2.56a14.856,14.856,0,0,1,.1-2.09l5.368,0.67h0.089a0.743,0.743,0,0,0,.455-0.16l4.9-4.2a0.687,0.687,0,0,0,.128-0.91l-1.228-1.84a2.49,2.49,0,0,0-.632-3.18l-4.161-3.32a2.528,2.528,0,0,0-3.133-.03l-7.929,6.08-0.259.18a4.747,4.747,0,0,0-1.166.72,5.13,5.13,0,0,0-1.308,2.4c-0.077.23-.152,0.46-0.235,0.67l-4.194,10.72a31.183,31.183,0,0,0-1,4.58c-0.178,1.01-.344,1.97-0.479,2.5-0.053.21-.1,0.42-0.152,0.63a8.282,8.282,0,0,1-.769,2.27,0.7,0.7,0,0,0,.248.95l2.467,1.46a54.65,54.65,0,0,0,22.117,7.23c0.561,0.05,1.267.08,2.074,0.08,4.025,0,10.519-.7,13.6-3.24l-0.89-1.07C779.528,3636.3,771.586,3636.83,768.043,3636.53Z" transform="translate(-743 -3597)"/>
</svg>
