<svg xmlns="http://www.w3.org/2000/svg" width="49" height="38" viewBox="0 0 49 38">
  <defs>
    <style>
      .cls-1 {
        fill: #00a5e4;
        fill-rule: evenodd;
      }
    </style>
  </defs>
  <path id="Forma_1" data-name="Forma 1" class="cls-1" d="M1210,3599.99h-49v1.52h4.69v27.48h17.96l-8.02,7.95,1.08,1.07,8.02-7.95v7.84h1.54v-7.84l7.8,7.73,1.09-1.07-7.81-7.73h17.96v-27.48H1210v-1.52Zm-6.22,27.48h-36.56v-25.96h36.56v25.96Zm-28.93-11.93,8.12,4.25,4.48-6.45,7.54,2.04,6.01-10.37-1.33-.75-5.42,9.35-7.45-2.01-4.32,6.22-8.34-4.37-4.36,9.35,1.39,0.63Z" transform="translate(-1161 -3600)"/>
</svg>
