<?xml version="1.0" encoding="iso-8859-1"?>
<!-- Generator: Adobe Illustrator 21.0.0, SVG Export Plug-In . SVG Version: 6.00 Build 0)  -->
<svg version="1.1" fill='#00a5e4' id="Capa_1" xmlns="http://www.w3.org/2000/svg" xmlns:xlink="http://www.w3.org/1999/xlink" x="0px" y="0px"
	 viewBox="-49 226.333 512 341.667" style="enable-background:new -49 226.333 512 341.667;" xml:space="preserve">
<path d="M409.667,567.667H4.333c-29.397,0-53.333-23.936-53.333-53.333V279.667c0-29.397,23.936-53.333,53.333-53.333h405.333
	c29.397,0,53.333,23.936,53.333,53.333v234.667C463,543.731,439.064,567.667,409.667,567.667z M4.333,247.667
	c-17.643,0-32,14.357-32,32v234.667c0,17.643,14.357,32,32,32h405.333c17.643,0,32-14.357,32-32V279.667c0-17.643-14.357-32-32-32
	H4.333z"/>
<path d="M207,418.696c-11.733,0-23.488-3.499-33.728-10.517L-1.683,288.477c-4.864-3.328-6.101-9.963-2.795-14.827
	c3.307-4.864,9.941-6.123,14.827-2.773l174.955,119.701c13.163,9.003,30.187,9.003,43.371,0l174.955-119.701
	c4.885-3.307,11.52-2.091,14.827,2.773c3.328,4.864,2.091,11.499-2.773,14.827L240.728,408.179
	C230.488,415.197,218.733,418.696,207,418.696z"/>
<path d="M4.333,525c-3.072,0-6.101-1.301-8.213-3.84c-3.776-4.523-3.157-11.264,1.365-15.04l128-106.667
	c4.523-3.755,11.264-3.136,15.04,1.365c3.776,4.523,3.157,11.264-1.365,15.04l-128,106.667C9.176,524.189,6.744,525,4.333,525z"/>
<path d="M409.667,525c-2.411,0-4.821-0.811-6.827-2.475l-128-106.667c-4.523-3.776-5.141-10.496-1.365-15.04
	c3.776-4.501,10.496-5.12,15.04-1.365l128,106.667c4.523,3.776,5.141,10.496,1.365,15.04C415.747,523.699,412.717,525,409.667,525z"
	/>
</svg>
