<svg version="1.1" fill='#00a5e4'
	 xmlns="http://www.w3.org/2000/svg" xmlns:xlink="http://www.w3.org/1999/xlink" x="0px" y="0px" viewBox="0 0 453 476"
	 style="enable-background:new 0 0 453 476;" xml:space="preserve">
<g>
	<path style="fill:none;stroke:#00a5e4;stroke-width:20;stroke-miterlimit:22.9256;" d="M29.512,86.474h54.175v336H29.512
		c-10.134,0-18.425-8.291-18.425-18.425v-299.15C11.087,94.765,19.378,86.474,29.512,86.474L29.512,86.474z M189.287,86.474h234.175
		c10.134,0,18.425,8.291,18.425,18.425v299.15c0,10.134-8.291,18.425-18.425,18.425H189.287V86.474L189.287,86.474z"/>
	
		<path style="fill:none;stroke:#00a5e4;stroke-width:20;stroke-linecap:round;stroke-linejoin:round;stroke-miterlimit:22.9256;" d="
		M102.112,43.274h68.75c10.134,0,18.425,8.291,18.425,18.425v385.55c0,10.134-8.291,18.425-18.425,18.425h-68.75
		c-10.134,0-18.425-8.291-18.425-18.425V61.699C83.687,51.565,91.978,43.274,102.112,43.274L102.112,43.274z"/>
	<path style="fill:none;stroke:#00a5e4;stroke-width:20;stroke-miterlimit:22.9256;" d="M221.121,86.474h190.8V28.512
		c0-10.134-8.291-18.425-18.425-18.425h-153.95c-10.134,0-18.425,8.291-18.425,18.425V86.474L221.121,86.474z M239.546,205.687
		h153.95c10.134,0,18.425-8.291,18.425-18.425v-35.543c0-10.134-8.291-18.425-18.425-18.425h-153.95
		c-10.134,0-18.425,8.291-18.425,18.425v35.543C221.121,197.395,229.412,205.687,239.546,205.687L239.546,205.687z"/>
	<path style="fill-rule:evenodd;clip-rule:evenodd;" d="M226.79,242.807h29.461c3.118,0,5.669,2.551,5.669,5.669v10.458
		c0,3.118-2.551,5.669-5.669,5.669H226.79c-3.118,0-5.669-2.551-5.669-5.669v-10.458
		C221.121,245.358,223.672,242.807,226.79,242.807L226.79,242.807z"/>
	<path style="fill-rule:evenodd;clip-rule:evenodd;" d="M376.791,242.807h29.461c3.118,0,5.669,2.551,5.669,5.669v10.458
		c0,3.118-2.551,5.669-5.669,5.669h-29.461c-3.118,0-5.669-2.551-5.669-5.669v-10.458
		C371.122,245.358,373.673,242.807,376.791,242.807L376.791,242.807z"/>
	<path style="fill-rule:evenodd;clip-rule:evenodd;" d="M301.791,242.807h29.461c3.118,0,5.669,2.551,5.669,5.669v10.458
		c0,3.118-2.551,5.669-5.669,5.669h-29.461c-3.118,0-5.669-2.551-5.669-5.669v-10.458
		C296.121,245.358,298.673,242.807,301.791,242.807L301.791,242.807z"/>
	<path style="fill-rule:evenodd;clip-rule:evenodd;" d="M226.79,283.607h29.461c3.118,0,5.669,2.551,5.669,5.669v10.458
		c0,3.118-2.551,5.669-5.669,5.669H226.79c-3.118,0-5.669-2.551-5.669-5.669v-10.458
		C221.121,286.158,223.672,283.607,226.79,283.607L226.79,283.607z"/>
	<path style="fill-rule:evenodd;clip-rule:evenodd;" d="M376.791,283.607h29.461c3.118,0,5.669,2.551,5.669,5.669v10.458
		c0,3.118-2.551,5.669-5.669,5.669h-29.461c-3.118,0-5.669-2.551-5.669-5.669v-10.458
		C371.122,286.158,373.673,283.607,376.791,283.607L376.791,283.607z"/>
	<path style="fill-rule:evenodd;clip-rule:evenodd;" d="M301.791,283.607h29.461c3.118,0,5.669,2.551,5.669,5.669v10.458
		c0,3.118-2.551,5.669-5.669,5.669h-29.461c-3.118,0-5.669-2.551-5.669-5.669v-10.458
		C296.121,286.158,298.673,283.607,301.791,283.607L301.791,283.607z"/>
	<path style="fill-rule:evenodd;clip-rule:evenodd;" d="M226.79,324.407h29.461c3.118,0,5.669,2.551,5.669,5.669v10.458
		c0,3.118-2.551,5.669-5.669,5.669H226.79c-3.118,0-5.669-2.551-5.669-5.669v-10.458
		C221.121,326.958,223.672,324.407,226.79,324.407L226.79,324.407z"/>
	<path style="fill-rule:evenodd;clip-rule:evenodd;" d="M376.791,324.407h29.461c3.118,0,5.669,2.551,5.669,5.669v10.458
		c0,3.118-2.551,5.669-5.669,5.669h-29.461c-3.118,0-5.669-2.551-5.669-5.669v-10.458
		C371.122,326.958,373.673,324.407,376.791,324.407L376.791,324.407z"/>
	<path style="fill-rule:evenodd;clip-rule:evenodd;" d="M301.791,324.407h29.461c3.118,0,5.669,2.551,5.669,5.669v10.458
		c0,3.118-2.551,5.669-5.669,5.669h-29.461c-3.118,0-5.669-2.551-5.669-5.669v-10.458
		C296.121,326.958,298.673,324.407,301.791,324.407L301.791,324.407z"/>
	<path style="fill-rule:evenodd;clip-rule:evenodd;" d="M226.79,365.207h29.461c3.118,0,5.669,2.551,5.669,5.669v10.458
		c0,3.118-2.551,5.669-5.669,5.669H226.79c-3.118,0-5.669-2.551-5.669-5.669v-10.458
		C221.121,367.758,223.672,365.207,226.79,365.207L226.79,365.207z"/>
	<path style="fill-rule:evenodd;clip-rule:evenodd;" d="M376.791,365.207h29.461c3.118,0,5.669,2.551,5.669,5.669v10.458
		c0,3.118-2.551,5.669-5.669,5.669h-29.461c-3.118,0-5.669-2.551-5.669-5.669v-10.458
		C371.122,367.758,373.673,365.207,376.791,365.207L376.791,365.207z"/>
	<path style="fill-rule:evenodd;clip-rule:evenodd;" d="M301.791,365.207h29.461c3.118,0,5.669,2.551,5.669,5.669v10.458
		c0,3.118-2.551,5.669-5.669,5.669h-29.461c-3.118,0-5.669-2.551-5.669-5.669v-10.458
		C296.121,367.758,298.673,365.207,301.791,365.207L301.791,365.207z"/>
</g>
</svg>
