<svg fill='#00a5e4' version="1.1" id="Capa_1" xmlns="http://www.w3.org/2000/svg" xmlns:xlink="http://www.w3.org/1999/xlink" x="0px" y="0px"
	 viewBox="-49 141 512 512" style="enable-background:new -49 141 512 512;" xml:space="preserve">
<path d="M443,417H-29c-11.046,0-20-8.954-20-20s8.954-20,20-20h472c11.046,0,20,8.954,20,20S454.046,417,443,417z"/>
<path d="M443,257H-29c-11.046,0-20-8.954-20-20s8.954-20,20-20h472c11.046,0,20,8.954,20,20S454.046,257,443,257z"/>
<path d="M443,577H-29c-11.046,0-20-8.954-20-20s8.954-20,20-20h472c11.046,0,20,8.954,20,20S454.046,577,443,577z"/>
</svg>
