<svg xmlns="http://www.w3.org/2000/svg" width="15" height="32" viewBox="0 0 15 32">
  <defs>
    <style>
      .cls-1 {
        fill: #b7b7b7;
        fill-rule: evenodd;
      }
    </style>
  </defs>
  <path id="Shape_2_copy_4" data-name="Shape 2 copy 4" class="cls-1" d="M1534.14,2527.99a0.983,0.983,0,0,0,.91-0.3l11.26-11.27a5.953,5.953,0,0,0,1.68-4.41,7.472,7.472,0,0,0-1.68-4.42l-11.26-11.27a1.188,1.188,0,1,0-1.68,1.68l11.27,11.27a3.5,3.5,0,0,1,0,5.17l-11.27,11.27a1.2,1.2,0,0,0,0,1.67A0.6,0.6,0,0,0,1534.14,2527.99Z" transform="translate(-1533.03 -2496)"/>
</svg>
