<svg version="1.1" fill='#00a5e4'
	 xmlns="http://www.w3.org/2000/svg" xmlns:xlink="http://www.w3.org/1999/xlink" x="0px" y="0px" viewBox="0 0 384.96 387.84"
	 style="enable-background:new 0 0 384.96 387.84;" xml:space="preserve">
<g>
	<g>
		<defs>
			<rect id="SVGID_1_" width="384.96" height="387.84"/>
		</defs>
		<clipPath id="SVGID_2_">
			<use xlink:href="#SVGID_1_"  style="overflow:visible;"/>
		</clipPath>
		<path style="clip-path:url(#SVGID_2_);" d="M77.941,257.441c38.082,45.519,83.922,81.359,136.243,106.718
			c19.918,9.442,46.558,20.641,76.238,22.563c1.84,0.078,3.601,0.156,5.441,0.156c19.918,0,35.918-6.879,48.957-21.039
			c0.082-0.078,0.242-0.238,0.321-0.398c4.64-5.602,9.921-10.641,15.441-16c3.762-3.602,7.602-7.36,11.281-11.2
			c17.039-17.761,17.039-40.32-0.16-57.519l-48.082-48.082c-8.16-8.481-17.918-12.961-28.16-12.961
			c-10.238,0-20.078,4.48-28.481,12.883l-28.636,28.636c-2.641-1.519-5.364-2.878-7.922-4.16c-3.199-1.597-6.16-3.117-8.801-4.797
			c-26.078-16.562-49.758-38.16-72.398-65.921c-11.442-14.481-19.121-26.641-24.481-39.04c7.52-6.8,14.559-13.921,21.36-20.878
			c2.398-2.481,4.878-4.961,7.359-7.442c8.641-8.64,13.281-18.64,13.281-28.801c0-10.16-4.558-20.16-13.281-28.8l-23.84-23.84
			c-2.801-2.797-5.437-5.52-8.16-8.321c-5.277-5.437-10.801-11.039-16.238-16.078C96.98,5.038,87.301,0.8,77.062,0.8
			c-10.16,0-19.921,4.238-28.48,12.398L18.66,43.12C7.781,53.999,1.621,67.198,0.344,82.48c-1.524,19.121,2,39.441,11.117,64
			C25.461,184.48,46.582,219.761,77.941,257.441L77.941,257.441z M19.863,84.159c0.957-10.64,5.039-19.519,12.719-27.199
			l29.762-29.762c4.636-4.476,9.758-6.796,14.718-6.796c4.879,0,9.84,2.32,14.399,6.957c5.359,4.961,10.402,10.16,15.84,15.679
			c2.722,2.801,5.519,5.602,8.32,8.481l23.84,23.84c4.961,4.961,7.519,10,7.519,14.961c0,4.96-2.558,10-7.519,14.96
			c-2.481,2.481-4.961,5.04-7.438,7.52c-7.441,7.52-14.402,14.641-22.082,21.441l-0.398,0.399c-6.641,6.64-5.602,12.961-4,17.762
			c0.078,0.238,0.16,0.398,0.238,0.636c6.16,14.801,14.719,28.883,28.082,45.684c24,29.598,49.278,52.558,77.117,70.238
			c3.442,2.238,7.122,4,10.563,5.762c3.199,1.598,6.16,3.117,8.801,4.797c0.316,0.16,0.558,0.32,0.879,0.48
			c2.64,1.36,5.199,2,7.757,2c6.403,0,10.563-4.078,11.922-5.437l29.918-29.922c4.641-4.641,9.68-7.121,14.641-7.121
			c6.082,0,11.039,3.761,14.16,7.121l48.242,48.16c9.598,9.602,9.52,20-0.242,30.16c-3.359,3.602-6.879,7.039-10.641,10.641
			c-5.597,5.437-11.437,11.039-16.718,17.359c-9.2,9.918-20.16,14.559-34.321,14.559c-1.359,0-2.8-0.078-4.16-0.16
			c-26.238-1.68-50.64-11.918-68.961-20.637C173.062,322.64,129.383,288.48,93.141,245.12c-29.84-35.922-49.918-69.359-63.2-105.199
			C21.703,117.921,18.582,100.241,19.863,84.159L19.863,84.159z M19.863,84.159"/>
	</g>
</g>
</svg>
