<svg version="1.1" fill='#00a5e4'
	 xmlns="http://www.w3.org/2000/svg" xmlns:xlink="http://www.w3.org/1999/xlink" x="0px" y="0px" viewBox="0 0 304.8 393.84"
	 style="enable-background:new 0 0 304.8 393.84;" xml:space="preserve">
<g>
	<g>
		<defs>
			<rect id="SVGID_1_" width="304.8" height="393.84"/>
		</defs>
		<clipPath id="SVGID_2_">
			<use xlink:href="#SVGID_1_"  style="overflow:visible;"/>
		</clipPath>
		<path style="clip-path:url(#SVGID_2_);" d="M152.238,0.813C68.32,0.813,0,69.133,0,153.051
			c0,81.84,140.238,230.883,146.16,237.203c4.641,4.957,10.559,1.68,12.078,0c6-6.32,146.16-155.363,146.16-237.203
			C304.48,69.133,236.16,0.813,152.238,0.813L152.238,0.813z M152.238,372.172C125.199,342.493,16.719,219.211,16.719,153.051
			c0-74.719,60.801-135.519,135.519-135.519c74.723,0,135.524,60.8,135.524,135.519
			C287.762,219.211,179.281,342.414,152.238,372.172L152.238,372.172z M152.238,372.172"/>
	</g>
	<path d="M152.238,76.493c-42.238,0-76.558,34.32-76.558,76.558c0,42.242,34.32,76.563,76.558,76.563
		c42.242,0,76.563-34.321,76.563-76.563C228.801,110.813,194.48,76.493,152.238,76.493L152.238,76.493z M152.238,212.891
		c-33.039,0-59.918-26.879-59.918-59.918s26.879-59.922,59.918-59.922c33.043,0,59.922,26.883,59.922,59.922
		C212.16,186.094,185.281,212.891,152.238,212.891L152.238,212.891z M152.238,212.891"/>
</g>
</svg>
