<svg xmlns="http://www.w3.org/2000/svg" width="15" height="32" viewBox="0 0 15 32">
  <defs>
    <style>
      .cls-1 {
        fill: #b7b7b7;
        fill-rule: evenodd;
      }
    </style>
  </defs>
  <path id="Shape_2_copy_5" data-name="Shape 2 copy 5" class="cls-1" d="M1471.86,2527.99a0.983,0.983,0,0,1-.91-0.3l-11.26-11.28a5.961,5.961,0,0,1-1.68-4.42,7.472,7.472,0,0,1,1.68-4.42l11.26-11.28a1.188,1.188,0,0,1,1.68,1.68l-11.27,11.28a3.512,3.512,0,0,0,0,5.18l11.27,11.28a1.2,1.2,0,0,1,0,1.67A0.6,0.6,0,0,1,1471.86,2527.99Z" transform="translate(-1458 -2495.97)"/>
</svg>
