<svg xmlns="http://www.w3.org/2000/svg" width="17" height="16" viewBox="0 0 17 16">
  <defs>
    <style>
      .cls-1 {
        fill: #333;
        fill-rule: evenodd;
      }
    </style>
  </defs>
  <path class="cls-1" d="M6.668,12.565A6.541,6.541,0,0,1,0,6.279,6.541,6.541,0,0,1,6.668-.007a6.541,6.541,0,0,1,6.664,6.286A6.541,6.541,0,0,1,6.668,12.565Zm0-11.429A5.282,5.282,0,0,0,1.216,6.279a5.282,5.282,0,0,0,5.453,5.143,5.283,5.283,0,0,0,5.453-5.143A5.283,5.283,0,0,0,6.668,1.136Zm4.847,8.929,5.3,5a0.538,0.538,0,0,1,0,.786,0.666,0.666,0,0,1-.454.143,0.5,0.5,0,0,1-.454-0.143l-5.3-5Z"/>
</svg>
