<svg version="1.1" id="Layer_1" xmlns="http://www.w3.org/2000/svg" xmlns:xlink="http://www.w3.org/1999/xlink" x="0px" y="0px"
	 viewBox="-49 141 512 512" style="enable-background:new -49 141 512 512;" xml:space="preserve" fill='#00a5e4'>
<g>
	<path d="M206.787,151.667C141.08,152.84,79.213,179.4,32.6,226.44c-46.827,47.467-72,109.547-70.933,174.827
		c1.173,65.707,26.987,126.827,72.747,172.16c45.12,44.587,104.747,68.907,168.427,68.907c1.493,0,2.88,0,4.373,0
		C272.92,641.16,334.787,614.6,381.4,567.56c46.933-47.467,72-109.547,70.933-174.827c-1.173-65.707-26.987-126.827-72.747-172.16
		C333.827,175.133,271.427,150.173,206.787,151.667z M431,393.16c1.067,59.52-21.973,116.16-64.747,159.36
		c-42.027,42.88-99.307,67.52-159.36,68.48c-58.773,1.387-115.627-21.333-157.333-62.827C7.64,516.893-15.933,461-17,400.947
		c-1.067-59.52,21.973-116.16,64.747-159.467C89.88,198.6,147.16,173.96,207.213,173c1.387,0,2.667,0,4.053,0
		c58.027,0,112.32,22.187,153.387,62.827C406.36,277.107,429.933,333,431,393.16z"/>
	<path d="M207,439.667c5.867,0,10.667-4.8,10.667-10.667V258.333c0-5.867-4.8-10.667-10.667-10.667s-10.667,4.8-10.667,10.667V429
		C196.333,434.973,201.133,439.667,207,439.667z"/>
	<path d="M207,482.333h-0.427c-11.733,0.107-21.227,9.707-21.12,21.547C185.56,515.613,195.16,525.107,207,525h0.427
		c11.733-0.107,21.227-9.707,21.12-21.547C228.44,491.72,218.733,482.227,207,482.333z"/>
</g>
</svg>
