<svg version="1.1" xmlns="http://www.w3.org/2000/svg" xmlns:xlink="http://www.w3.org/1999/xlink" x="0px" y="0px"
	 viewBox="0 0 324 324" style="enable-background:new 0 0 324 324;" xml:space="preserve" fill='#009EDF'>
<g>
	<path d="M207.2,192.5c-0.1,0.3-0.3,0.4-0.4,0.7c-7.3,18-12.7,23.3-29.6,27c-16.8,3.9-13.8,13.1,1.7,16.1
		c11.5,2.3,7.2,19.2,5.3,25.2c-4.5,9.2-13.1,15.2-22.4,15.2c-11.2,0-21.3-8.8-24.5-21.3c-0.1-0.1-0.1-0.3-0.3-0.4
		c0-0.4,0-0.5-0.1-0.8L93.2,120.3c10.4-6.5,37.7-14.9,68.7-14.9c31.2,0,58.5,8.4,68.8,14.9L207.2,192.5L207.2,192.5z M322,105.2
		c-9.7-14.4-25.8,0.3-46.6,1.7c20.9-56.1-7.3-90.6-8.5-92c-6.8-8-18.9-9.2-26.9-2.3c-8,6.8-9.1,18.8-2.3,26.8
		c0.1,0.1,13.1,16.9,4.1,47.4c-24.1-12-58.7-16.5-79.9-16.5c-21,0-55.7,4.5-79.8,16.5c-8.7-29.7,3.5-46.3,4.3-47.5
		c6.7-8.1,5.6-20-2.4-26.6C75.9,5.8,63.9,7,57.1,14.9c-1.2,1.5-28.6,35-9.5,89.5c0.1,0.1,0.4,1.1,0.8,2.5
		c-20.8-1.5-36.9-16.1-46.5-1.7c-7.9,11.6,7.3,41.1,55.1,27.7v-0.1c0.8,2.4,1.3,4.1,1.3,4.1l42.3,129c0,0.1,0.1,0.1,0.1,0.3
		c8,28.6,32.9,48.6,61,48.6c28.2,0,53.1-20,61.1-48.6c0-0.1,0.1-0.1,0.1-0.3l43.7-133C314.5,146.4,329.7,116.8,322,105.2L322,105.2z
		"/>
</g>
</svg>
