<svg xmlns="http://www.w3.org/2000/svg" width="115" height="67.03" viewBox="0 0 115 67.03">
  <defs>
    <style>
      .cls-1 {
        fill: #fff;
        fill-rule: evenodd;
      }
    </style>
  </defs>
  <path class="cls-1" d="M381.605,4729.69a1.251,1.251,0,0,1-.013.19,0.338,0.338,0,0,1-.04.13,0.181,0.181,0,0,1-.067.07,0.121,0.121,0,0,1-.077.03h-2.746v2.58h2.6a0.123,0.123,0,0,1,.078.03,0.154,0.154,0,0,1,.066.06,0.375,0.375,0,0,1,.042.13,1.531,1.531,0,0,1,.011.2,1.367,1.367,0,0,1-.011.19,0.314,0.314,0,0,1-.042.13,0.228,0.228,0,0,1-.066.08,0.112,0.112,0,0,1-.078.02h-2.6v3.17a0.138,0.138,0,0,1-.024.08,0.122,0.122,0,0,1-.08.06,0.549,0.549,0,0,1-.151.04,1.7,1.7,0,0,1-.244.01,1.661,1.661,0,0,1-.237-0.01,0.515,0.515,0,0,1-.157-0.04,0.121,0.121,0,0,1-.082-0.06,0.13,0.13,0,0,1-.022-0.08v-7.04a0.38,0.38,0,0,1,.119-0.32,0.4,0.4,0,0,1,.251-0.09h3.373a0.209,0.209,0,0,1,.077.02,0.219,0.219,0,0,1,.067.08,0.394,0.394,0,0,1,.04.14A1.3,1.3,0,0,1,381.605,4729.69Zm7.731,6.81a0.649,0.649,0,0,1,.048.21,0.147,0.147,0,0,1-.044.12,0.388,0.388,0,0,1-.153.05,2.3,2.3,0,0,1-.286.01,2.357,2.357,0,0,1-.288-0.01,0.351,0.351,0,0,1-.162-0.03,0.169,0.169,0,0,1-.082-0.05c-0.015-.03-0.033-0.06-0.048-0.09l-0.643-1.85h-3.116l-0.616,1.83a0.432,0.432,0,0,1-.047.09,0.341,0.341,0,0,1-.082.06,0.523,0.523,0,0,1-.157.04,2,2,0,0,1-.264.01,2.165,2.165,0,0,1-.275-0.01,0.259,0.259,0,0,1-.151-0.06,0.155,0.155,0,0,1-.039-0.12,0.712,0.712,0,0,1,.048-0.21l2.514-7.06a0.289,0.289,0,0,1,.062-0.11,0.185,0.185,0,0,1,.111-0.06,0.728,0.728,0,0,1,.183-0.04h0.594a0.847,0.847,0,0,1,.2.04,0.2,0.2,0,0,1,.115.06,0.318,0.318,0,0,1,.064.11Zm-3.227-6.24H386.1l-1.292,3.79h2.606Zm10.749,6.44a0.222,0.222,0,0,1-.018.09,0.118,0.118,0,0,1-.075.05,0.553,0.553,0,0,1-.162.04,2.217,2.217,0,0,1-.279.01,1.746,1.746,0,0,1-.246-0.01,0.51,0.51,0,0,1-.153-0.04,0.235,0.235,0,0,1-.091-0.07,0.45,0.45,0,0,1-.055-0.12l-0.69-1.79a5.518,5.518,0,0,0-.25-0.56,1.819,1.819,0,0,0-.31-0.44,1.215,1.215,0,0,0-.424-0.29,1.464,1.464,0,0,0-.585-0.11h-0.667v3.24a0.15,0.15,0,0,1-.027.09,0.164,0.164,0,0,1-.079.05,0.5,0.5,0,0,1-.151.04,1.7,1.7,0,0,1-.242.01,1.676,1.676,0,0,1-.239-0.01,0.543,0.543,0,0,1-.155-0.04,0.15,0.15,0,0,1-.08-0.05,0.172,0.172,0,0,1-.024-0.09v-7.04a0.383,0.383,0,0,1,.119-0.32,0.414,0.414,0,0,1,.253-0.09h1.594c0.188,0,.345.01,0.472,0.01s0.237,0.03.339,0.04a2.807,2.807,0,0,1,.767.24,1.822,1.822,0,0,1,.558.42,1.63,1.63,0,0,1,.339.57,2.4,2.4,0,0,1,.014,1.41,1.664,1.664,0,0,1-.293.53,2.032,2.032,0,0,1-.459.41,3.235,3.235,0,0,1-.6.29,1.377,1.377,0,0,1,.335.2,1.829,1.829,0,0,1,.281.31,2.494,2.494,0,0,1,.246.4c0.078,0.15.155,0.33,0.233,0.52l0.671,1.67c0.056,0.15.089,0.24,0.105,0.3A0.607,0.607,0,0,1,396.858,4736.7Zm-1.5-5.34a1.4,1.4,0,0,0-.2-0.76,1.141,1.141,0,0,0-.66-0.44,1.546,1.546,0,0,0-.328-0.06c-0.122-.01-0.282-0.02-0.479-0.02h-0.84v2.57h0.973a2,2,0,0,0,.683-0.1,1.206,1.206,0,0,0,.476-0.27,1.053,1.053,0,0,0,.282-0.41A1.423,1.423,0,0,0,395.358,4731.36Zm12.365,5.34a0.164,0.164,0,0,1-.025.09,0.151,0.151,0,0,1-.084.05,0.53,0.53,0,0,1-.151.04,1.663,1.663,0,0,1-.241.01,1.69,1.69,0,0,1-.238-0.01,0.525,0.525,0,0,1-.155-0.04,0.154,0.154,0,0,1-.08-0.05,0.172,0.172,0,0,1-.024-0.09v-6.62h-0.011l-2.642,6.65a0.188,0.188,0,0,1-.049.07,0.216,0.216,0,0,1-.093.05,0.328,0.328,0,0,1-.146.03,1.187,1.187,0,0,1-.2.01,1.316,1.316,0,0,1-.209-0.01c-0.057-.01-0.106-0.02-0.144-0.03a0.411,0.411,0,0,1-.091-0.05,0.139,0.139,0,0,1-.042-0.07l-2.526-6.65h-0.007v6.62a0.149,0.149,0,0,1-.025.09,0.145,0.145,0,0,1-.081.05,0.569,0.569,0,0,1-.156.04,1.746,1.746,0,0,1-.246.01,1.676,1.676,0,0,1-.239-0.01,0.512,0.512,0,0,1-.151-0.04,0.133,0.133,0,0,1-.077-0.05,0.182,0.182,0,0,1-.022-0.09v-6.99a0.418,0.418,0,0,1,.13-0.35,0.452,0.452,0,0,1,.288-0.11H400.6a1.1,1.1,0,0,1,.33.04,0.672,0.672,0,0,1,.246.11,0.6,0.6,0,0,1,.178.19,1.467,1.467,0,0,1,.124.28l2.143,5.51h0.029l2.23-5.5a1.784,1.784,0,0,1,.141-0.29,0.7,0.7,0,0,1,.169-0.2,0.533,0.533,0,0,1,.2-0.11,0.98,0.98,0,0,1,.257-0.03h0.643a0.472,0.472,0,0,1,.168.03,0.252,0.252,0,0,1,.135.08,0.414,0.414,0,0,1,.091.14,0.563,0.563,0,0,1,.036.21v6.99Zm9.224-.42a1.868,1.868,0,0,1,.086.34,0.185,0.185,0,0,1-.046.18,0.381,0.381,0,0,1-.226.08c-0.107.01-.255,0.01-0.446,0.01s-0.35,0-.461-0.01a0.8,0.8,0,0,1-.25-0.03,0.194,0.194,0,0,1-.122-0.08,0.32,0.32,0,0,1-.058-0.12l-0.5-1.53H412.1l-0.476,1.49a0.686,0.686,0,0,1-.06.14,0.313,0.313,0,0,1-.122.09,1.1,1.1,0,0,1-.237.04c-0.1.01-.237,0.01-0.4,0.01a2.4,2.4,0,0,1-.416-0.02,0.329,0.329,0,0,1-.209-0.08,0.234,0.234,0,0,1-.042-0.19,2.164,2.164,0,0,1,.087-0.33l2.314-6.75a0.5,0.5,0,0,1,.079-0.16,0.365,0.365,0,0,1,.149-0.1,1.521,1.521,0,0,1,.281-0.04h1.02a1.9,1.9,0,0,1,.315.04,0.378,0.378,0,0,1,.161.1,0.487,0.487,0,0,1,.085.18Zm-3.442-5.58h0l-1.061,3.24h2.127Zm11.631-.27a2.854,2.854,0,0,1-.015.3,0.832,0.832,0,0,1-.04.19,0.265,0.265,0,0,1-.064.11,0.137,0.137,0,0,1-.091.02,0.534,0.534,0,0,1-.242-0.1,3.362,3.362,0,0,0-.448-0.23,4.883,4.883,0,0,0-.662-0.23,3.421,3.421,0,0,0-.9-0.11,2.4,2.4,0,0,0-.984.2,1.959,1.959,0,0,0-.753.54,2.327,2.327,0,0,0-.481.84,3.271,3.271,0,0,0-.169,1.08,3.533,3.533,0,0,0,.171,1.15,2.281,2.281,0,0,0,.479.83,1.966,1.966,0,0,0,.738.51,2.649,2.649,0,0,0,.953.17,2.152,2.152,0,0,0,.5-0.06,1.826,1.826,0,0,0,.463-0.18v-1.76h-1.42a0.175,0.175,0,0,1-.162-0.13,1.259,1.259,0,0,1-.058-0.45,2.485,2.485,0,0,1,.014-0.28,0.847,0.847,0,0,1,.044-0.18,0.289,0.289,0,0,1,.069-0.1,0.156,0.156,0,0,1,.093-0.03h2.533a0.424,0.424,0,0,1,.164.03,0.384,0.384,0,0,1,.128.1,0.42,0.42,0,0,1,.085.15,0.891,0.891,0,0,1,.028.21v3.03a0.7,0.7,0,0,1-.062.31,0.419,0.419,0,0,1-.248.21c-0.126.05-.281,0.1-0.467,0.16s-0.377.1-.577,0.14a5.957,5.957,0,0,1-.6.09c-0.2.02-.405,0.03-0.609,0.03a4.5,4.5,0,0,1-1.609-.27,3.191,3.191,0,0,1-1.2-.75,3.253,3.253,0,0,1-.754-1.22,4.608,4.608,0,0,1-.261-1.61,4.712,4.712,0,0,1,.279-1.68,3.568,3.568,0,0,1,.787-1.27,3.417,3.417,0,0,1,1.232-.79,4.341,4.341,0,0,1,1.607-.28,4.832,4.832,0,0,1,.886.07,4.946,4.946,0,0,1,.7.16,3.7,3.7,0,0,1,.5.21,1.294,1.294,0,0,1,.275.2,0.486,0.486,0,0,1,.113.23A2.19,2.19,0,0,1,425.136,4730.43Zm8.38,6.23a0.254,0.254,0,0,1-.024.11,0.241,0.241,0,0,1-.109.07,1.227,1.227,0,0,1-.255.04c-0.113.01-.266,0.01-0.458,0.01-0.162,0-.293,0-0.388-0.01a1.041,1.041,0,0,1-.229-0.04,0.258,0.258,0,0,1-.119-0.09,0.419,0.419,0,0,1-.058-0.12l-0.671-1.7q-0.123-.285-0.24-0.51a1.566,1.566,0,0,0-.257-0.37,0.94,0.94,0,0,0-.328-0.23,1.131,1.131,0,0,0-.428-0.07h-0.476v2.9a0.155,0.155,0,0,1-.038.1,0.272,0.272,0,0,1-.124.08,1.111,1.111,0,0,1-.23.04,3.442,3.442,0,0,1-.741,0,1.168,1.168,0,0,1-.235-0.04,0.248,0.248,0,0,1-.119-0.08,0.164,0.164,0,0,1-.036-0.1v-6.91a0.423,0.423,0,0,1,.452-0.49h1.942c0.2,0,.359,0,0.485.01s0.244,0.02.348,0.03a3.23,3.23,0,0,1,.814.22,2.071,2.071,0,0,1,.616.42,1.741,1.741,0,0,1,.383.6,2.316,2.316,0,0,1,.135.81,2.358,2.358,0,0,1-.1.69,1.772,1.772,0,0,1-.738.99,2.37,2.37,0,0,1-.621.3,1.455,1.455,0,0,1,.317.2,1.75,1.75,0,0,1,.277.28,2.438,2.438,0,0,1,.246.38c0.078,0.15.153,0.31,0.226,0.49l0.632,1.5c0.058,0.15.1,0.26,0.117,0.33A0.619,0.619,0,0,1,433.516,4736.66Zm-1.966-5.16a1.163,1.163,0,0,0-.166-0.64,0.923,0.923,0,0,0-.552-0.36,1.712,1.712,0,0,0-.263-0.05,4.015,4.015,0,0,0-.408-0.02h-0.685v2.16h0.778a1.924,1.924,0,0,0,.567-0.08,1.185,1.185,0,0,0,.406-0.22,0.938,0.938,0,0,0,.244-0.35A1.169,1.169,0,0,0,431.55,4731.5Zm10.982,1.46a5.706,5.706,0,0,1-.232,1.7,3.3,3.3,0,0,1-.69,1.26,2.905,2.905,0,0,1-1.132.8,4.184,4.184,0,0,1-1.561.27,4.672,4.672,0,0,1-1.527-.23,2.67,2.67,0,0,1-1.086-.71,3.071,3.071,0,0,1-.653-1.21,6.168,6.168,0,0,1-.218-1.74,5.479,5.479,0,0,1,.233-1.66,3.493,3.493,0,0,1,.689-1.26,3.134,3.134,0,0,1,1.133-.79,4.2,4.2,0,0,1,1.567-.28,4.6,4.6,0,0,1,1.5.23,2.684,2.684,0,0,1,1.088.71,3.109,3.109,0,0,1,.66,1.2A5.893,5.893,0,0,1,442.532,4732.96Zm-1.6.09a6,6,0,0,0-.091-1.09,2.318,2.318,0,0,0-.317-0.84,1.406,1.406,0,0,0-.594-0.54,1.97,1.97,0,0,0-.926-0.2,1.915,1.915,0,0,0-.94.22,1.7,1.7,0,0,0-.607.57,2.4,2.4,0,0,0-.328.84,5.167,5.167,0,0,0-.1,1.01,6.075,6.075,0,0,0,.093,1.12,2.426,2.426,0,0,0,.312.85,1.389,1.389,0,0,0,.592.54,2.116,2.116,0,0,0,.933.19,1.8,1.8,0,0,0,.938-0.22,1.707,1.707,0,0,0,.609-0.57,2.45,2.45,0,0,0,.326-0.85A5.3,5.3,0,0,0,440.932,4733.05Zm8.356,1.67a2.207,2.207,0,0,1-.193.95,2.024,2.024,0,0,1-.539.71,2.274,2.274,0,0,1-.811.44,3.276,3.276,0,0,1-1.006.15,3.082,3.082,0,0,1-.7-0.07,2.852,2.852,0,0,1-.574-0.16,2.33,2.33,0,0,1-.424-0.19,1.181,1.181,0,0,1-.237-0.17,0.461,0.461,0,0,1-.1-0.18,1.017,1.017,0,0,1-.034-0.29,1.246,1.246,0,0,1,.014-0.21,0.435,0.435,0,0,1,.033-0.14,0.189,0.189,0,0,1,.058-0.08,0.211,0.211,0,0,1,.082-0.02,0.546,0.546,0,0,1,.228.1,3.4,3.4,0,0,0,.381.22,3.542,3.542,0,0,0,.559.22,2.471,2.471,0,0,0,.755.1,2.194,2.194,0,0,0,.594-0.08,1.568,1.568,0,0,0,.464-0.25,1.091,1.091,0,0,0,.3-0.4,1.368,1.368,0,0,0,.1-0.54,1.008,1.008,0,0,0-.146-0.55,1.431,1.431,0,0,0-.381-0.4,3.361,3.361,0,0,0-.544-0.32c-0.2-.09-0.41-0.19-0.622-0.29s-0.419-.21-0.619-0.33a3.115,3.115,0,0,1-.538-0.43,2.055,2.055,0,0,1-.386-0.58,1.937,1.937,0,0,1-.148-0.8,2.031,2.031,0,0,1,.17-0.85,1.649,1.649,0,0,1,.477-0.62,2.117,2.117,0,0,1,.722-0.39,2.96,2.96,0,0,1,.907-0.13,2.859,2.859,0,0,1,.5.04,3.351,3.351,0,0,1,.474.12,2.775,2.775,0,0,1,.4.16,1.248,1.248,0,0,1,.228.15,0.513,0.513,0,0,1,.073.09,0.336,0.336,0,0,1,.029.08c0.009,0.04.013,0.08,0.018,0.12s0.007,0.11.007,0.18,0,0.14-.009.19a0.871,0.871,0,0,1-.027.14,0.127,0.127,0,0,1-.049.08,0.106,0.106,0,0,1-.073.03,0.524,0.524,0,0,1-.2-0.08c-0.091-.06-0.2-0.12-0.335-0.19a3.062,3.062,0,0,0-.465-0.19,2.255,2.255,0,0,0-.6-0.08,1.78,1.78,0,0,0-.546.08,1.262,1.262,0,0,0-.383.23,0.868,0.868,0,0,0-.224.34,1.051,1.051,0,0,0-.075.41,0.964,0.964,0,0,0,.144.54,1.41,1.41,0,0,0,.385.41,3.321,3.321,0,0,0,.548.32q0.306,0.15.625,0.3c0.213,0.1.421,0.21,0.627,0.33a2.784,2.784,0,0,1,.548.42,1.963,1.963,0,0,1,.387.58A1.9,1.9,0,0,1,449.288,4734.72Zm6.868,1.72a1.314,1.314,0,0,1-.011.18,0.437,0.437,0,0,1-.042.14,0.157,0.157,0,0,1-.067.07,0.129,0.129,0,0,1-.084.03h-3.6a0.417,0.417,0,0,1-.253-0.09,0.4,0.4,0,0,1-.119-0.32v-6.79a0.383,0.383,0,0,1,.119-0.32,0.417,0.417,0,0,1,.253-0.09h3.557a0.231,0.231,0,0,1,.085.02,0.175,0.175,0,0,1,.059.08,0.643,0.643,0,0,1,.038.13,1.065,1.065,0,0,1,.016.2,0.852,0.852,0,0,1-.016.18,0.4,0.4,0,0,1-.038.13,0.175,0.175,0,0,1-.059.08,0.231,0.231,0,0,1-.085.02H452.98v2.39H455.5a0.235,0.235,0,0,1,.084.02,0.276,0.276,0,0,1,.062.08,0.319,0.319,0,0,1,.038.13,1.164,1.164,0,0,1,.013.19,1.037,1.037,0,0,1-.013.18,0.459,0.459,0,0,1-.038.13,0.128,0.128,0,0,1-.062.06,0.126,0.126,0,0,1-.084.02H452.98v2.73h2.972a0.122,0.122,0,0,1,.084.02,0.157,0.157,0,0,1,.067.07,0.461,0.461,0,0,1,.042.13A1.646,1.646,0,0,1,456.156,4736.44Zm7.893,0.26a0.193,0.193,0,0,1-.018.09,0.116,0.116,0,0,1-.076.05,0.529,0.529,0,0,1-.161.04,2.166,2.166,0,0,1-.277.01,1.739,1.739,0,0,1-.247-0.01,0.543,0.543,0,0,1-.155-0.04,0.232,0.232,0,0,1-.088-0.07,0.42,0.42,0,0,1-.056-0.12l-0.689-1.79a5.98,5.98,0,0,0-.253-0.56,1.715,1.715,0,0,0-.31-0.44,1.184,1.184,0,0,0-.423-0.29,1.467,1.467,0,0,0-.585-0.11h-0.665v3.24a0.15,0.15,0,0,1-.027.09,0.164,0.164,0,0,1-.082.05,0.465,0.465,0,0,1-.151.04,1.662,1.662,0,0,1-.239.01,1.692,1.692,0,0,1-.241-0.01,0.519,0.519,0,0,1-.153-0.04,0.152,0.152,0,0,1-.082-0.05,0.163,0.163,0,0,1-.023-0.09v-7.04a0.381,0.381,0,0,1,.12-0.32,0.4,0.4,0,0,1,.251-0.09h1.593c0.191,0,.348.01,0.472,0.01s0.24,0.03.339,0.04a2.81,2.81,0,0,1,.769.24,1.814,1.814,0,0,1,.559.42,1.63,1.63,0,0,1,.339.57,2.218,2.218,0,0,1,.113.72,2.114,2.114,0,0,1-.1.69,1.556,1.556,0,0,1-.293.53,1.975,1.975,0,0,1-.456.41,3.286,3.286,0,0,1-.6.29,1.329,1.329,0,0,1,.336.2,2.071,2.071,0,0,1,.282.31,2.646,2.646,0,0,1,.246.4c0.077,0.15.153,0.33,0.23,0.52l0.674,1.67c0.053,0.15.089,0.24,0.1,0.3A0.535,0.535,0,0,1,464.049,4736.7Zm-1.5-5.34a1.409,1.409,0,0,0-.2-0.76,1.127,1.127,0,0,0-.661-0.44,1.534,1.534,0,0,0-.328-0.06c-0.122-.01-0.279-0.02-0.476-0.02h-0.84v2.57h0.973a1.985,1.985,0,0,0,.68-0.1,1.233,1.233,0,0,0,.479-0.27,1.078,1.078,0,0,0,.279-0.41A1.4,1.4,0,0,0,462.548,4731.36Zm7.081,5.32a0.318,0.318,0,0,1-.064.11,0.292,0.292,0,0,1-.111.06,0.5,0.5,0,0,1-.186.03,2.311,2.311,0,0,1-.282.01h-0.223a0.766,0.766,0,0,1-.164-0.02,0.406,0.406,0,0,1-.12-0.02,0.226,0.226,0,0,1-.084-0.04,0.162,0.162,0,0,1-.053-0.06,0.2,0.2,0,0,1-.038-0.08l-2.451-7.06a0.813,0.813,0,0,1-.051-0.21,0.146,0.146,0,0,1,.051-0.12,0.247,0.247,0,0,1,.166-0.05,2.765,2.765,0,0,1,.315-0.01h0.257a0.451,0.451,0,0,1,.148.04,0.134,0.134,0,0,1,.078.06,0.535,0.535,0,0,1,.048.09l2.15,6.41h0.007l2.092-6.39a0.393,0.393,0,0,1,.04-0.11,0.119,0.119,0,0,1,.08-0.06,0.552,0.552,0,0,1,.164-0.04h0.277a2.245,2.245,0,0,1,.284.01,0.214,0.214,0,0,1,.141.06,0.124,0.124,0,0,1,.029.12,0.855,0.855,0,0,1-.053.2Zm5.969,0.02a0.172,0.172,0,0,1-.022.09,0.16,0.16,0,0,1-.082.05,0.51,0.51,0,0,1-.153.04,1.707,1.707,0,0,1-.242.01,1.683,1.683,0,0,1-.237-0.01,0.54,0.54,0,0,1-.157-0.04,0.146,0.146,0,0,1-.08-0.05,0.164,0.164,0,0,1-.025-0.09v-7.3a0.121,0.121,0,0,1,.027-0.08,0.3,0.3,0,0,1,.087-0.06c0.042-.01.093-0.02,0.157-0.03a1.558,1.558,0,0,1,.228-0.01,1.707,1.707,0,0,1,.242.01q0.1,0.015.153,0.03a0.276,0.276,0,0,1,.082.06,0.137,0.137,0,0,1,.022.08v7.3Zm8.269-.92c0,0.06,0,.12,0,0.17a0.632,0.632,0,0,1-.022.12,0.308,0.308,0,0,1-.037.09,0.432,0.432,0,0,1-.08.1,1.649,1.649,0,0,1-.244.18,3.236,3.236,0,0,1-.461.24,4.179,4.179,0,0,1-.632.19,3.754,3.754,0,0,1-.777.08,3.28,3.28,0,0,1-1.319-.25,2.522,2.522,0,0,1-1-.73,3.24,3.24,0,0,1-.638-1.19,6.009,6.009,0,0,1,.017-3.31,3.643,3.643,0,0,1,.674-1.26,2.93,2.93,0,0,1,1.042-.78,3.428,3.428,0,0,1,1.972-.21,4.222,4.222,0,0,1,.568.15,3.341,3.341,0,0,1,.463.22,1.544,1.544,0,0,1,.281.2c0.054,0.06.087,0.1,0.1,0.12a0.464,0.464,0,0,1,.038.1,0.877,0.877,0,0,1,.022.13,1.512,1.512,0,0,1,.009.19,1.773,1.773,0,0,1-.011.2,0.546,0.546,0,0,1-.035.13,0.24,0.24,0,0,1-.056.09,0.171,0.171,0,0,1-.077.02,0.469,0.469,0,0,1-.229-0.11,2.94,2.94,0,0,0-.374-0.25,2.827,2.827,0,0,0-.561-0.26,2.593,2.593,0,0,0-.789-0.11,2.092,2.092,0,0,0-.911.2,1.913,1.913,0,0,0-.7.6,2.97,2.97,0,0,0-.453.96,4.805,4.805,0,0,0-.159,1.29,4.713,4.713,0,0,0,.155,1.28,2.663,2.663,0,0,0,.443.93,1.877,1.877,0,0,0,.707.57,2.387,2.387,0,0,0,.949.19,2.62,2.62,0,0,0,.784-0.11,3.57,3.57,0,0,0,.57-0.25c0.157-.1.288-0.18,0.388-0.25a0.454,0.454,0,0,1,.239-0.12,0.144,0.144,0,0,1,.069.02,0.135,0.135,0,0,1,.047.07,0.464,0.464,0,0,1,.026.14A1.947,1.947,0,0,1,483.867,4735.78Zm6.764,0.66a1.314,1.314,0,0,1-.011.18,0.437,0.437,0,0,1-.042.14,0.161,0.161,0,0,1-.066.07,0.134,0.134,0,0,1-.085.03h-3.6a0.41,0.41,0,0,1-.252-0.09,0.394,0.394,0,0,1-.12-0.32v-6.79a0.381,0.381,0,0,1,.12-0.32,0.41,0.41,0,0,1,.252-0.09h3.557a0.231,0.231,0,0,1,.085.02,0.183,0.183,0,0,1,.06.08,0.716,0.716,0,0,1,.037.13,1.065,1.065,0,0,1,.016.2,0.852,0.852,0,0,1-.016.18,0.428,0.428,0,0,1-.037.13,0.183,0.183,0,0,1-.06.08,0.231,0.231,0,0,1-.085.02h-2.932v2.39h2.516a0.235,0.235,0,0,1,.084.02,0.26,0.26,0,0,1,.062.08,0.319,0.319,0,0,1,.038.13,1.164,1.164,0,0,1,.013.19,1.037,1.037,0,0,1-.013.18,0.459,0.459,0,0,1-.038.13,0.124,0.124,0,0,1-.062.06,0.126,0.126,0,0,1-.084.02h-2.516v2.73h2.972a0.126,0.126,0,0,1,.085.02,0.161,0.161,0,0,1,.066.07,0.461,0.461,0,0,1,.042.13A1.646,1.646,0,0,1,490.631,4736.44Zm-9.794-41.42-6.11-2.31c-5.754-2.34-6.808-4.06-6.808-6.59,0-3.79,2.868-5.97,7.868-5.97,1.711,0,7.438.41,9.372,5.67a2.929,2.929,0,0,0,3.788,1.76,3.011,3.011,0,0,0,1.733-3.85c-2.593-7.04-9.394-9.55-14.893-9.55-9.5,0-13.756,6-13.756,11.94,0,6.9,5.05,9.91,10.5,12.14a0.08,0.08,0,0,1,.044.02,0.043,0.043,0,0,1,.031.01l6.161,2.32c6.792,2.6,7.335,4.44,7.335,6.58,0,3.79-3.13,5.97-8.588,5.97-1.816,0-10.881-.47-10.881-9.67a2.946,2.946,0,1,0-5.891,0c0,10.8,8.424,15.64,16.772,15.64,10.684,0,14.475-6.44,14.475-11.94C491.994,4700.24,486.637,4697.24,480.837,4695.02ZM400.5,4674.09H380.04a3.054,3.054,0,0,0-3.032,3.07v38.98a3.029,3.029,0,1,0,6.058,0v-16.41h11.217a3.075,3.075,0,0,0,0-6.15H383.066v-13.34H400.5A3.075,3.075,0,0,0,400.5,4674.09Zm56.33,11.54c-1.538-2.31-4.1.04-7.4,0.28,3.33-9.02-1.155-14.58-1.349-14.82a3,3,0,0,0-4.269-.36,3.1,3.1,0,0,0-.361,4.33c0.022,0.02,2.078,2.71.663,7.62-3.832-1.92-9.329-2.66-12.68-2.66s-8.842.74-12.678,2.66c-1.37-4.78.553-7.47,0.694-7.66a3.1,3.1,0,0,0-.392-4.29,3,3,0,0,0-4.269.36c-0.19.23-4.543,5.63-1.5,14.41,0.009,0.02.059,0.18,0.134,0.41-3.3-.24-5.856-2.59-7.393-0.28-1.237,1.85,1.173,6.61,8.746,4.45l0-.01c0.128,0.39.214,0.65,0.214,0.65l6.725,20.8a0.093,0.093,0,0,1,.019.04,9.921,9.921,0,0,0,19.39-.01c0-.01.012-0.02,0.015-0.03l6.934-21.44C455.656,4692.24,458.068,4687.48,456.831,4685.63ZM438.6,4699.68c-0.019.04-.038,0.07-0.057,0.12-1.148,2.89-2,3.74-4.68,4.35s-2.208,2.08.267,2.59c1.806,0.37,1.136,3.08.839,4.04a4.072,4.072,0,0,1-3.537,2.45,4.256,4.256,0,0,1-3.905-3.44c-0.006-.02-0.019-0.04-0.025-0.06a0.533,0.533,0,0,0-.028-0.12l-6.968-21.56c1.657-1.04,6-2.41,10.926-2.41s9.271,1.37,10.928,2.42Z" transform="translate(-377 -4669.97)"/>
</svg>
